<svg width="155" height="45" viewBox="0 0 155 45" fill="none" xmlns="http://www.w3.org/2000/svg">
<g filter="url(#filter0_d_1_3307)">
<path d="M46.3241 9.23151V24.1082L37.3981 16.3036V24.1589H34.2537V9.3104L43.1346 17.1601V9.23151H46.3241Z" fill="#38369C"/>
<path d="M60.3555 21.4033V24.1589H49.4065V9.23151H60.3555V11.9814H52.5509V15.3231H58.3269V18.0166H52.5509V21.3977H60.3555V21.4033Z" fill="#38369C"/>
<path d="M68.9096 24.3674C67.9055 24.3746 66.9111 24.1711 65.9906 23.7701C65.0973 23.3827 64.2863 22.828 63.6013 22.1359C62.1848 20.6971 61.3948 18.7565 61.4036 16.7375C61.3963 14.7204 62.1862 12.7821 63.6013 11.3447C64.2863 10.6526 65.0973 10.0979 65.9906 9.71051C66.9133 9.31648 67.9063 9.11334 68.9096 9.11334C69.9129 9.11334 70.9059 9.31648 71.8286 9.71051C72.7211 10.0994 73.5319 10.6539 74.2179 11.3447C75.633 12.7821 76.4229 14.7204 76.4156 16.7375C76.4244 18.7565 75.6344 20.6971 74.2179 22.1359C73.5319 22.8267 72.7211 23.3813 71.8286 23.7701C70.9081 24.1711 69.9137 24.3746 68.9096 24.3674ZM68.9096 12.2576C68.3276 12.2518 67.7511 12.3709 67.2191 12.607C66.7061 12.8363 66.2429 13.1637 65.8554 13.5706C65.4607 13.9879 65.1473 14.4752 64.9312 15.0075C64.4803 16.1226 64.4803 17.3693 64.9312 18.4844C65.1489 19.0108 65.4622 19.4922 65.8554 19.9044C66.2411 20.3148 66.7047 20.6443 67.2191 20.8737C67.7469 21.1042 68.3167 21.2232 68.8927 21.2232C69.4687 21.2232 70.0385 21.1042 70.5663 20.8737C71.0799 20.6429 71.5432 20.3136 71.93 19.9044C72.3213 19.4907 72.6344 19.0096 72.8542 18.4844C73.305 17.3693 73.305 16.1226 72.8542 15.0075C72.6359 14.4764 72.3228 13.9894 71.93 13.5706C71.5415 13.1648 71.0785 12.8377 70.5663 12.607C70.0447 12.3756 69.4802 12.2566 68.9096 12.2576Z" fill="#38369C"/>
<path d="M84.5866 16.7206L90.7852 24.1589H87.0209L82.7213 18.9577L81.2844 20.6933V24.1589H78.3879V9.23151H81.2731V16.1796L87.0378 9.23151H90.7852L84.5866 16.7206Z" fill="#38369C"/>
<path d="M101.881 24.159L98.9672 19.5946C98.6573 19.5946 98.3191 19.5946 97.9472 19.5946H95.7721V24.159H92.6277V9.23161H99.6772C100.34 9.22721 100.997 9.35727 101.608 9.61394C102.219 9.87061 102.772 10.2486 103.233 10.7249C103.69 11.2022 104.055 11.7601 104.309 12.3704C104.57 13.0107 104.703 13.6962 104.698 14.3877C104.728 15.2713 104.49 16.1433 104.016 16.8897C103.539 17.6006 102.921 18.2066 102.202 18.6704L105.831 24.159H101.881ZM95.7721 16.8334H97.4119H98.6742C98.9996 16.8393 99.3251 16.8261 99.649 16.7939C99.9172 16.7659 100.177 16.6829 100.411 16.5501C100.646 16.4172 100.851 16.2374 101.013 16.0219C101.379 15.5361 101.566 14.9391 101.542 14.3314C101.575 13.75 101.386 13.1779 101.013 12.731C100.658 12.3391 100.174 12.0889 99.649 12.0266C99.418 12.0266 99.0855 11.9872 98.6572 11.9815C98.229 11.9759 97.7951 11.9815 97.3668 11.9815H95.7495L95.7721 16.8334Z" fill="#38369C"/>
<path d="M118.6 21.4033V24.1589H107.628V9.23151H118.6V11.9814H110.773V15.3231H116.549V18.0166H110.773V21.3977H118.6V21.4033Z" fill="#38369C"/>
<path d="M127.013 9.16939C127.94 9.27004 128.84 9.54134 129.667 9.96957C130.474 10.3805 131.198 10.9364 131.803 11.6094C132.414 12.2892 132.9 13.0712 133.24 13.9198C133.592 14.7976 133.772 15.7351 133.77 16.681C133.777 17.6148 133.603 18.5411 133.257 19.4084C132.93 20.2389 132.455 21.0028 131.854 21.6624C131.246 22.3283 130.524 22.8816 129.724 23.2966C128.876 23.7358 127.959 24.0274 127.013 24.1588C126.466 24.2298 125.914 24.2694 125.362 24.2771C124.725 24.2771 124.106 24.2771 123.508 24.2771C122.815 24.2771 122.105 24.2208 121.378 24.1813V9.19193C122.133 9.15248 122.871 9.12431 123.587 9.11304C124.196 9.11304 124.821 9.11304 125.452 9.11304C126.083 9.11304 126.602 9.12994 127.013 9.16939ZM127.013 21.1215C127.503 21.0421 127.973 20.8658 128.394 20.603C128.815 20.3411 129.184 20.0028 129.481 19.6056C129.785 19.1953 130.024 18.7412 130.191 18.2588C130.363 17.7544 130.451 17.2251 130.451 16.6923C130.453 16.1675 130.361 15.6466 130.18 15.1539C130.007 14.674 129.758 14.225 129.442 13.824C129.124 13.4374 128.743 13.1077 128.315 12.8491C127.908 12.596 127.457 12.4221 126.985 12.3363C126.754 12.2945 126.521 12.2719 126.286 12.2687C126.01 12.2687 125.723 12.2687 125.469 12.2687C125.216 12.2687 124.849 12.3025 124.528 12.325V21.1215C124.81 21.1496 125.092 21.1665 125.39 21.1834C125.689 21.2003 125.909 21.1834 126.191 21.1834C126.462 21.1798 126.733 21.1591 127.002 21.1215H127.013Z" fill="#38369C"/>
<path d="M34.6089 30.4365H35.9219C37.3588 30.4365 38.1759 31.0958 38.1759 32.3017C38.1759 33.5077 37.3701 34.1726 35.9219 34.1726H35.4203V35.649H34.6089V30.4365ZM35.8881 33.4569C36.9136 33.4569 37.3306 33.0963 37.3306 32.3299C37.3306 31.5635 36.908 31.2029 35.8881 31.2029H35.4203V33.4569H35.8881Z" fill="#FF9700"/>
<path d="M42.2781 33.0453C42.2748 32.5132 42.4295 31.9921 42.7225 31.548C43.0156 31.1038 43.4339 30.7567 43.9244 30.5505C44.4149 30.3443 44.9556 30.2883 45.478 30.3897C46.0003 30.491 46.4809 30.7451 46.8587 31.1198C47.2365 31.4944 47.4947 31.9728 47.6004 32.4943C47.7061 33.0158 47.6547 33.5569 47.4526 34.0492C47.2505 34.5414 46.9069 34.9626 46.4653 35.2594C46.0236 35.5562 45.5038 35.7152 44.9717 35.7163C44.6176 35.7247 44.2654 35.6615 43.9363 35.5306C43.6072 35.3996 43.308 35.2035 43.0564 34.9541C42.8049 34.7047 42.6064 34.4071 42.4726 34.0791C42.3389 33.7511 42.2727 33.3995 42.2781 33.0453ZM46.8257 33.0453C46.8091 32.6813 46.686 32.3302 46.4716 32.0356C46.2572 31.741 45.961 31.5159 45.6198 31.3882C45.2785 31.2605 44.9073 31.2359 44.5522 31.3173C44.1971 31.3988 43.8737 31.5828 43.6222 31.8465C43.3708 32.1102 43.2024 32.4419 43.1378 32.8005C43.0733 33.1591 43.1155 33.5287 43.2593 33.8635C43.403 34.1983 43.642 34.4835 43.9464 34.6837C44.2508 34.8838 44.6074 34.9901 44.9717 34.9894C45.2239 34.9921 45.474 34.943 45.7064 34.8452C45.9388 34.7473 46.1487 34.6028 46.323 34.4205C46.4973 34.2383 46.6324 34.0222 46.7198 33.7857C46.8073 33.5491 46.8452 33.2971 46.8313 33.0453H46.8257Z" fill="#FF9700"/>
<path d="M51.3677 30.4364H52.2186L53.1427 33.2145C53.2385 33.5019 53.34 33.9584 53.34 33.9584C53.34 33.9584 53.4696 33.5132 53.5935 33.2145L54.8389 30.397L56.0899 33.2145C56.1864 33.4576 56.2692 33.706 56.3378 33.9584C56.3378 33.9584 56.4449 33.5019 56.5407 33.2145L57.4649 30.4364H58.2538L56.4505 35.7052H56.3491L55.0587 32.6116C54.9516 32.358 54.8389 31.9748 54.8389 31.9748C54.8389 31.9748 54.7206 32.358 54.6135 32.6116L53.2836 35.7165H53.1878L51.3677 30.4364Z" fill="#FF9700"/>
<path d="M62.4688 30.4365H65.7766V31.1522H63.2802V32.792H65.3539V33.4851H63.2802V34.939H65.8836V35.649H62.4688V30.4365Z" fill="#FF9700"/>
<path d="M74.1054 35.649H73.17L72.2515 34.1219H71.1245V35.649H70.3074V30.4365H71.626C73.0629 30.4365 73.88 31.0958 73.88 32.2905C73.8991 32.6091 73.8258 32.9264 73.6688 33.2043C73.5119 33.4822 73.278 33.7089 72.9953 33.857L74.1054 35.649ZM71.626 33.4288C72.6628 33.4288 73.0742 33.0625 73.0742 32.3017C73.0742 31.541 72.6459 31.1747 71.626 31.1747H71.1695V33.4288H71.626Z" fill="#FF9700"/>
<path d="M84.6374 31.1522H83.2681V30.4365H86.8407V31.1522H85.4714V35.6603H84.6656L84.6374 31.1522Z" fill="#FF9700"/>
<path d="M90.6895 33.0453C90.6862 32.5132 90.8408 31.9921 91.1339 31.548C91.427 31.1038 91.8452 30.7567 92.3358 30.5505C92.8263 30.3443 93.367 30.2883 93.8893 30.3897C94.4117 30.491 94.8922 30.7451 95.2701 31.1198C95.6479 31.4944 95.906 31.9728 96.0118 32.4943C96.1175 33.0158 96.0661 33.5569 95.864 34.0492C95.6619 34.5414 95.3183 34.9626 94.8766 35.2594C94.435 35.5562 93.9152 35.7152 93.3831 35.7163C93.029 35.7247 92.6768 35.6615 92.3477 35.5306C92.0186 35.3996 91.7193 35.2035 91.4678 34.9541C91.2163 34.7047 91.0177 34.4071 90.884 34.0791C90.7503 33.7511 90.6841 33.3995 90.6895 33.0453ZM95.237 33.0453C95.2205 32.6813 95.0974 32.3302 94.883 32.0356C94.6686 31.741 94.3724 31.5159 94.0312 31.3882C93.6899 31.2605 93.3187 31.2359 92.9636 31.3173C92.6084 31.3988 92.2851 31.5828 92.0336 31.8465C91.7822 32.1102 91.6137 32.4419 91.5492 32.8005C91.4847 33.1591 91.5269 33.5287 91.6706 33.8635C91.8144 34.1983 92.0533 34.4835 92.3578 34.6837C92.6622 34.8838 93.0187 34.9901 93.3831 34.9894C93.6348 34.9913 93.8842 34.9417 94.116 34.8435C94.3478 34.7453 94.557 34.6006 94.7307 34.4185C94.9044 34.2363 95.039 34.0205 95.126 33.7843C95.2131 33.5481 95.2509 33.2966 95.237 33.0453Z" fill="#FF9700"/>
<path d="M107.155 33.7385L105.177 30.4307H106.073L107.251 32.6115C107.346 32.783 107.451 32.9486 107.567 33.1073C107.686 32.9518 107.792 32.7858 107.882 32.6115L109.009 30.4645H109.843L107.95 33.7272V35.6769H107.138L107.155 33.7385Z" fill="#FF9700"/>
<path d="M113.669 33.0454C113.669 31.4901 114.734 30.3687 116.064 30.3687C117.394 30.3687 118.454 31.4957 118.454 33.0454C118.454 34.595 117.389 35.7164 116.064 35.7164C114.74 35.7164 113.669 34.6007 113.669 33.0454ZM117.715 33.0454C117.715 31.9184 117.034 31.0956 116.064 31.0956C115.095 31.0956 114.408 31.9353 114.408 33.0454C114.408 34.1555 115.095 34.9895 116.064 34.9895C117.034 34.9895 117.715 34.1555 117.715 33.0454Z" fill="#FF9700"/>
<path d="M122.674 33.8176V30.4365H123.469V33.7725C123.49 34.0934 123.633 34.3942 123.868 34.614C124.103 34.8337 124.412 34.9559 124.734 34.9559C125.056 34.9559 125.365 34.8337 125.6 34.614C125.835 34.3942 125.978 34.0934 125.999 33.7725V30.4365H126.85V33.8176C126.85 35.0855 125.903 35.7166 124.776 35.7166C123.649 35.7166 122.674 35.0855 122.674 33.8176Z" fill="#FF9700"/>
<path d="M20.6449 14.8496L14.4407 7.54083L14.4351 9.8794L20.6449 17.2389V14.8496Z" fill="url(#paint0_linear_1_3307)"/>
<path d="M20.645 19.2058V17.2392L14.4351 9.8797L14.4294 11.8069L20.645 19.2058Z" fill="url(#paint1_linear_1_3307)"/>
<path d="M9.82572 6.97192V23.6575C10.6135 24.0853 11.5361 24.1923 12.401 23.9561C13.759 23.5955 14.5761 22.5643 14.5761 21.7021V5.39409C14.5761 4.83058 14.4296 4.58264 13.8999 4.46993C12.9563 4.39043 12.0162 4.65902 11.257 5.22504C10.6299 5.58147 10.137 6.13377 9.8539 6.79723C9.8332 6.85307 9.82363 6.91241 9.82572 6.97192Z" fill="url(#paint2_linear_1_3307)"/>
<path d="M20.5266 11.1983V28.9038C21.3155 29.3283 22.2368 29.4351 23.1019 29.2025C24.4599 28.8418 25.277 27.8106 25.277 26.9484V9.72191C25.277 9.1584 25.1305 8.91046 24.6008 8.79775C23.6572 8.71825 22.7171 8.98684 21.9579 9.55286C21.2946 9.90651 20.785 10.4924 20.5266 11.1983Z" fill="url(#paint3_linear_1_3307)"/>
<path d="M21.9579 9.55279C21.2861 9.91734 20.7754 10.5206 20.5266 11.2433V28.9037C21.2899 29.3172 22.1798 29.4317 23.023 29.225V9.01746C22.6497 9.15703 22.2926 9.33652 21.9579 9.55279Z" fill="url(#paint4_linear_1_3307)"/>
<path d="M11.2568 5.22489C10.6333 5.57906 10.1426 6.12716 9.85927 6.78582C9.83633 6.84902 9.82487 6.91581 9.82546 6.98305V23.6573C10.5713 24.0611 11.4388 24.1793 12.2655 23.9898V4.7121C11.9125 4.84789 11.5745 5.01973 11.2568 5.22489Z" fill="url(#paint5_linear_1_3307)"/>
<path d="M25.3616 20.5412V23.1334C25.1523 23.4611 24.8709 23.7367 24.5389 23.9392C24.0291 24.2583 23.4368 24.4204 22.8356 24.4054C22.2344 24.3904 21.651 24.1988 21.1578 23.8547C20.1942 23.1503 18.3403 21.0371 14.3957 16.3431C10.823 12.0266 9.85942 10.7249 9.63965 10.4149V8.62296C9.63965 7.81714 9.82561 7.81714 9.82561 7.81714V7.87349C9.82561 7.98619 11.5161 10.1275 14.1872 13.3846C16.8582 16.6417 18.6953 18.7098 19.7209 19.8537C20.7464 20.9977 21.6143 21.6795 22.7131 21.7809C23.1317 21.8244 23.5546 21.7674 23.9466 21.6145C24.3387 21.4616 24.6886 21.2173 24.9671 20.9019C25.0787 20.7639 25.1786 20.6169 25.2658 20.4623V20.3834C25.3052 20.3722 25.3616 20.4229 25.3616 20.5412Z" fill="url(#paint6_linear_1_3307)"/>
<path d="M14.1928 17.9603C16.2384 20.4679 17.2358 21.6344 19.5518 24.1589C20.7859 25.5169 21.5297 25.8494 22.8202 25.9283C23.2861 25.9507 23.7508 25.864 24.1773 25.6752C24.6038 25.4864 24.9804 25.2007 25.2771 24.8407C25.2771 24.8407 25.3616 24.79 25.3616 24.6041V23.1333C25.1523 23.4611 24.8709 23.7367 24.5389 23.9391C24.0296 24.2596 23.4371 24.4226 22.8356 24.4076C22.2341 24.3925 21.6504 24.2002 21.1578 23.8546C20.1942 23.1502 18.3403 21.037 14.3957 16.343C10.823 12.0209 9.85942 10.7248 9.63965 10.4149V12.3252C9.64028 12.3573 9.65006 12.3886 9.66782 12.4153C9.87069 12.6576 11.0879 14.1847 14.1928 17.9603Z" fill="url(#paint7_linear_1_3307)"/>
</g>
<defs>
<filter id="filter0_d_1_3307" x="-5" y="-3" width="165" height="54" filterUnits="userSpaceOnUse" color-interpolation-filters="sRGB">
<feFlood flood-opacity="0" result="BackgroundImageFix"/>
<feColorMatrix in="SourceAlpha" type="matrix" values="0 0 0 0 0 0 0 0 0 0 0 0 0 0 0 0 0 0 127 0" result="hardAlpha"/>
<feOffset dy="2"/>
<feGaussianBlur stdDeviation="2.5"/>
<feColorMatrix type="matrix" values="0 0 0 0 0.14902 0 0 0 0 0.2 0 0 0 0 0.301961 0 0 0 0.03 0"/>
<feBlend mode="normal" in2="BackgroundImageFix" result="effect1_dropShadow_1_3307"/>
<feBlend mode="normal" in="SourceGraphic" in2="effect1_dropShadow_1_3307" result="shape"/>
</filter>
<linearGradient id="paint0_linear_1_3307" x1="5.76263" y1="13.4633" x2="25.5137" y2="11.6657" gradientUnits="userSpaceOnUse">
<stop offset="0.19" stop-color="#FFEAA9"/>
<stop offset="0.44" stop-color="#FFD348"/>
<stop offset="0.68" stop-color="#FF9B1C"/>
<stop offset="1" stop-color="#FF4A00"/>
</linearGradient>
<linearGradient id="paint1_linear_1_3307" x1="10.3722" y1="0.829717" x2="18.2444" y2="15.8867" gradientUnits="userSpaceOnUse">
<stop offset="0.19" stop-color="#FFEAA9"/>
<stop offset="0.44" stop-color="#FFD348"/>
<stop offset="0.68" stop-color="#FF9B1C"/>
<stop offset="1" stop-color="#FF4A00"/>
</linearGradient>
<linearGradient id="paint2_linear_1_3307" x1="11.15" y1="14.2187" x2="14.6156" y2="14.3145" gradientUnits="userSpaceOnUse">
<stop offset="0.32" stop-color="#FFA200"/>
<stop offset="0.51" stop-color="#FF8E00"/>
<stop offset="0.88" stop-color="#FF5B00"/>
<stop offset="1" stop-color="#FF4A00"/>
</linearGradient>
<linearGradient id="paint3_linear_1_3307" x1="21.0732" y1="19.11" x2="25.694" y2="18.9691" gradientUnits="userSpaceOnUse">
<stop offset="0.43" stop-color="#FFA200"/>
<stop offset="0.55" stop-color="#FF9200"/>
<stop offset="0.77" stop-color="#FF6800"/>
<stop offset="0.91" stop-color="#FF4A00"/>
</linearGradient>
<linearGradient id="paint4_linear_1_3307" x1="17.4104" y1="12.8493" x2="25.2488" y2="23.8265" gradientUnits="userSpaceOnUse">
<stop offset="0.09" stop-color="#FFB816"/>
<stop offset="0.29" stop-color="#FFA200"/>
<stop offset="0.34" stop-color="#FF8D00"/>
<stop offset="0.44" stop-color="#FF7000"/>
<stop offset="0.54" stop-color="#FF5B00"/>
<stop offset="0.64" stop-color="#FF4E00"/>
<stop offset="0.73" stop-color="#FF4A00"/>
<stop offset="1" stop-color="#F03B00"/>
</linearGradient>
<linearGradient id="paint5_linear_1_3307" x1="11.0426" y1="27.9062" x2="11.0426" y2="4.9375" gradientUnits="userSpaceOnUse">
<stop stop-color="#FFA200"/>
<stop offset="0.02" stop-color="#FFA000"/>
<stop offset="0.31" stop-color="#FF7B00"/>
<stop offset="0.58" stop-color="#FF6000"/>
<stop offset="0.82" stop-color="#FF5000"/>
<stop offset="1" stop-color="#FF4A00"/>
</linearGradient>
<linearGradient id="paint6_linear_1_3307" x1="9.1832" y1="38.6186" x2="21.9411" y2="3.39358" gradientUnits="userSpaceOnUse">
<stop offset="0.01" stop-color="#FFD348"/>
<stop offset="0.28" stop-color="#FF4A00"/>
<stop offset="0.57" stop-color="#FFD348"/>
<stop offset="0.68" stop-color="#FF9B1C"/>
<stop offset="1" stop-color="#FF4A00"/>
</linearGradient>
<linearGradient id="paint7_linear_1_3307" x1="7.98293" y1="3.21319" x2="25.2883" y2="29.6362" gradientUnits="userSpaceOnUse">
<stop stop-color="#FFEAA9"/>
<stop offset="0.15" stop-color="#FF4A00"/>
<stop offset="0.37" stop-color="#FFD348"/>
<stop offset="0.58" stop-color="#FF9B1C"/>
<stop offset="0.9" stop-color="#FF4A00"/>
</linearGradient>
</defs>
</svg>
